<?xml version="1.0" encoding="UTF-8" standalone="no"?>
<svg
   xmlns:dc="http://purl.org/dc/elements/1.1/"
   xmlns:cc="http://creativecommons.org/ns#"
   xmlns:rdf="http://www.w3.org/1999/02/22-rdf-syntax-ns#"
   xmlns:svg="http://www.w3.org/2000/svg"
   xmlns="http://www.w3.org/2000/svg"
   viewBox="0 0 1440 445.33334"
   height="445.33334"
   width="1440"
   xml:space="preserve"
   id="svg2"
   version="1.1"><metadata
     id="metadata8"><rdf:RDF><cc:Work
         rdf:about=""><dc:format>image/svg+xml</dc:format><dc:type
           rdf:resource="http://purl.org/dc/dcmitype/StillImage" /></cc:Work></rdf:RDF></metadata><defs
     id="defs6"><clipPath
       id="clipPath22"
       clipPathUnits="userSpaceOnUse"><path
         id="path20"
         d="M 0,334 H 1080 V 0 H 0 Z" /></clipPath><clipPath
       id="clipPath70"
       clipPathUnits="userSpaceOnUse"><path
         id="path68"
         d="m 824.301,196.801 h 54.945 v -56.305 h -54.945 z" /></clipPath></defs><g
     transform="matrix(1.3333333,0,0,-1.3333333,0,445.33333)"
     id="g10"><g
       transform="translate(171.2563,185.4619)"
       id="g12"><path
         id="path14"
         style="fill:#3687c1;fill-opacity:1;fill-rule:nonzero;stroke:none"
         d="m 0,0 v -45.405 h -25.433 v 45.197 l -30.823,52.871 h 28.128 L -12.924,23.705 2.211,52.663 h 27.921 z" /></g><g
       id="g16"><g
         clip-path="url(#clipPath22)"
         id="g18"><g
           transform="translate(229.8057,213.936)"
           id="g24"><path
             id="path26"
             style="fill:#3687c1;fill-opacity:1;fill-rule:nonzero;stroke:none"
             d="m 0,0 c -4.285,-2.673 -7.671,-6.267 -10.159,-10.782 -2.488,-4.469 -3.732,-9.169 -3.732,-14.098 0,-4.931 1.266,-9.63 3.801,-14.099 2.533,-4.561 5.897,-8.178 10.09,-10.85 4.239,-2.719 8.869,-4.079 13.892,-4.079 4.975,0 9.582,1.36 13.822,4.079 4.192,2.672 7.578,6.289 10.159,10.85 2.488,4.515 3.732,9.215 3.732,14.099 0,4.929 -1.244,9.629 -3.732,14.098 C 35.385,-6.313 32.021,-2.72 27.783,0 23.452,2.718 18.821,4.077 13.892,4.077 8.869,4.077 4.239,2.718 0,0 m 39.808,19.627 c 7.97,-4.608 14.259,-10.828 18.867,-18.66 4.654,-7.925 6.98,-16.541 6.98,-25.847 0,-9.353 -2.326,-17.946 -6.98,-25.779 -4.608,-7.879 -10.897,-14.097 -18.867,-18.659 -7.925,-4.561 -16.563,-6.843 -25.916,-6.843 -9.308,0 -17.946,2.282 -25.917,6.843 -8.017,4.608 -14.329,10.826 -18.936,18.659 -4.655,7.833 -6.98,16.426 -6.98,25.779 0,9.306 2.325,17.922 6.98,25.847 4.607,7.786 10.919,14.006 18.936,18.66 7.971,4.561 16.609,6.842 25.917,6.842 9.353,0 17.991,-2.281 25.916,-6.842" /></g><g
           transform="translate(383.7974,238.0557)"
           id="g28"><path
             id="path30"
             style="fill:#3687c1;fill-opacity:1;fill-rule:nonzero;stroke:none"
             d="m 0,0 v -63.997 c 0,-7.419 -1.796,-13.868 -5.39,-19.352 -3.594,-5.527 -8.548,-9.72 -14.859,-12.577 -6.358,-2.903 -13.638,-4.354 -21.839,-4.354 -7.695,0 -14.422,1.244 -20.181,3.732 -5.805,2.488 -10.297,6.312 -13.476,11.473 -3.226,5.159 -4.838,11.609 -4.838,19.35 V 0.069 L -56.463,0 v -58.813 c 0,-3.826 0.438,-7.119 1.313,-9.883 0.921,-2.902 2.488,-5.16 4.699,-6.774 2.166,-1.704 5.16,-2.557 8.985,-2.557 7.141,0 11.841,2.097 14.098,6.29 2.212,4.238 3.318,10.298 3.318,18.176 v 53.63 z" /></g><g
           transform="translate(411.8706,189.8853)"
           id="g32"><path
             id="path34"
             style="fill:#3687c1;fill-opacity:1;fill-rule:nonzero;stroke:none"
             d="m 0,0 c 4.053,0 7.417,0.484 10.089,1.451 2.58,0.875 4.631,2.42 6.151,4.631 1.428,2.118 2.143,4.86 2.143,8.224 0,5.068 -1.521,8.523 -4.561,10.367 C 10.734,26.515 6.127,27.437 0,27.437 Z M -24.051,-49.622 V 48.239 H 3.248 c 7.74,0 14.582,-1.014 20.526,-3.04 5.85,-1.982 10.435,-5.23 13.753,-9.745 3.27,-4.516 4.907,-10.345 4.907,-17.485 0,-5.253 -1.429,-10.275 -4.285,-15.066 -2.811,-4.746 -6.612,-8.017 -11.403,-9.814 L 51.072,-49.759 H 22.944 L 0.276,-5.805 H 0 v -43.817 z" /></g><g
           transform="translate(516.7241,212.208)"
           id="g36"><path
             id="path38"
             style="fill:#3687c1;fill-opacity:1;fill-rule:nonzero;stroke:none"
             d="m 0,0 c -2.857,2.718 -5.367,4.63 -7.533,5.736 -2.304,1.198 -4.976,1.797 -8.016,1.797 -2.259,0 -4.377,-0.715 -6.359,-2.142 -2.073,-1.429 -3.11,-3.318 -3.11,-5.668 0,-3.317 2.257,-5.943 6.773,-7.878 4.607,-1.982 9.33,-3.894 14.168,-5.736 4.884,-1.935 9.123,-5 12.716,-9.192 3.548,-4.239 5.321,-10.459 5.321,-18.66 0,-10.505 -3.155,-18.568 -9.467,-24.189 -6.266,-5.666 -14.261,-8.501 -23.982,-8.501 -5.621,0 -11.057,0.968 -16.309,2.904 -5.299,1.935 -9.953,4.838 -13.961,8.707 l 12.993,18.522 c 4.146,-5.252 9.606,-7.88 16.379,-7.88 2.719,0 5.322,0.762 7.81,2.283 2.441,1.474 3.662,3.638 3.662,6.496 0,3.362 -2.28,6.035 -6.842,8.017 -2.028,0.874 -4.377,1.865 -7.048,2.971 l -3.595,1.451 -3.662,1.521 c -4.931,2.027 -9.146,5.09 -12.647,9.191 -3.502,4.055 -5.253,10.113 -5.253,18.177 0,6.174 1.521,11.564 4.561,16.172 2.948,4.561 6.887,8.062 11.818,10.505 4.791,2.394 9.928,3.593 15.412,3.593 5.068,0 10.043,-0.968 14.928,-2.903 4.975,-2.027 9.329,-4.837 13.062,-8.431 z" /></g><g
           transform="translate(575.3701,215.8018)"
           id="g40"><path
             id="path42"
             style="fill:#808080;fill-opacity:1;fill-rule:nonzero;stroke:none"
             d="M 0,0 H -18.867 L -24.88,22.323 H 41.535 L 47.341,0 H 24.05 V -75.745 H 0 Z" /></g><g
           transform="translate(736.2178,215.8018)"
           id="g44"><path
             id="path46"
             style="fill:#808080;fill-opacity:1;fill-rule:nonzero;stroke:none"
             d="M 0,0 H -18.867 L -24.88,22.323 H 41.535 L 47.341,0 H 24.05 V -75.745 H 0 Z" /></g><g
           transform="translate(913.9277,189.8853)"
           id="g48"><path
             id="path50"
             style="fill:#808080;fill-opacity:1;fill-rule:nonzero;stroke:none"
             d="m 0,0 c 4.053,0 7.417,0.484 10.09,1.451 2.579,0.875 4.63,2.42 6.15,4.631 1.428,2.118 2.143,4.86 2.143,8.224 0,5.068 -1.521,8.523 -4.562,10.367 C 10.733,26.515 6.127,27.437 0,27.437 Z M -24.051,-49.622 V 48.239 H 3.247 c 7.74,0 14.583,-1.014 20.526,-3.04 5.851,-1.982 10.436,-5.23 13.753,-9.745 3.271,-4.516 4.908,-10.345 4.908,-17.485 0,-5.253 -1.429,-10.275 -4.286,-15.066 -2.81,-4.746 -6.612,-8.017 -11.403,-9.814 L 51.072,-49.759 H 22.944 L 0.275,-5.805 H 0 v -43.817 z" /></g><g
           transform="translate(705.3662,238.1245)"
           id="g52"><path
             id="path54"
             style="fill:#808080;fill-opacity:1;fill-rule:nonzero;stroke:none"
             d="m 0,0 h -25.072 l 14.401,-48.901 c 2.226,-7.557 2.877,-13.682 1.953,-18.373 -0.981,-4.66 -4.896,-7.999 -11.748,-10.017 -3.668,-1.08 -6.781,-1.107 -9.341,-0.084 -2.576,0.922 -4.716,2.646 -6.421,5.169 -1.621,2.405 -2.971,5.44 -4.051,9.11 L -59.031,0 h -25.161 l 22.728,-76.54 c 2.187,-7.425 5.556,-13.158 10.107,-17.196 4.508,-4.052 9.897,-6.451 16.169,-7.197 6.227,-0.76 13.031,-0.054 20.413,2.12 7.866,2.316 14.44,5.766 19.719,10.347 5.247,4.522 8.815,9.944 10.7,16.262 1.899,6.275 1.8,12.97 -0.295,20.087 z" /></g><g
           transform="translate(662.9678,223.4331)"
           id="g56"><path
             id="path58"
             style="fill:#808080;fill-opacity:1;fill-rule:nonzero;stroke:none"
             d="m 0,0 9.72,-33.283 c 0.136,-0.468 0.628,-0.737 1.095,-0.6 0.468,0.136 0.738,0.627 0.601,1.095 l -9.6,32.87 C 2.389,0.142 2.98,0.25 3.582,0.387 L 16.22,-42.884 c 0.136,-0.468 0.627,-0.737 1.094,-0.6 0.469,0.137 0.738,0.627 0.601,1.095 L 5.277,0.885 C 5.807,1.08 6.318,1.294 6.8,1.539 l 7.788,-26.67 c 0.137,-0.468 0.628,-0.737 1.096,-0.6 0.467,0.137 0.737,0.627 0.6,1.095 L 8.372,2.457 c 1.642,1.089 2.907,2.341 3.725,3.282 l 13.874,-47.507 c 1.358,-4.652 -1.322,-9.542 -5.974,-10.9 -4.652,-1.359 -9.542,1.32 -10.9,5.973 L -4.76,0.751 C -3.605,0.389 -1.942,0.023 0,0 M 30.282,-41.833 13.969,14.026 c -0.303,1.035 -1.385,1.628 -2.42,1.327 -1.034,-0.303 -1.627,-1.386 -1.325,-2.42 L 11.656,8.028 C 11.207,7.395 8.359,3.577 3.947,2.289 -1.2,0.785 -5.666,2.982 -5.708,3.004 -5.71,3.005 -5.711,3.005 -5.712,3.005 l -1.419,4.859 c -0.303,1.034 -1.386,1.628 -2.42,1.326 -1.034,-0.302 -1.627,-1.385 -1.325,-2.419 l 16.313,-55.86 c 2.001,-6.85 9.202,-10.795 16.051,-8.795 6.85,2 10.794,9.2 8.794,16.051" /></g><g
           transform="translate(878.874,214.9033)"
           id="g60"><path
             id="path62"
             style="fill:#d4145a;fill-opacity:1;fill-rule:nonzero;stroke:none"
             d="m 0,0 c -4.606,7.832 -10.896,14.052 -18.867,18.66 -7.925,4.561 -16.564,6.842 -25.917,6.842 -9.307,0 -17.945,-2.281 -25.915,-6.842 C -78.717,14.006 -85.029,7.786 -89.636,0 c -4.654,-7.925 -6.98,-16.541 -6.98,-25.848 0,-9.353 2.326,-17.945 6.98,-25.778 4.607,-7.833 10.919,-14.052 18.937,-18.659 7.97,-4.562 16.608,-6.843 25.915,-6.843 5.893,0 11.502,0.91 16.827,2.721 3.128,1.063 6.158,2.434 9.09,4.122 7.971,4.561 14.261,10.78 18.867,18.659 0.133,0.224 0.244,0.453 0.372,0.677 4.393,7.651 6.608,16.014 6.608,25.101 C 6.98,-16.541 4.653,-7.925 0,0" /></g><g
           id="g64"><g
             id="g66" /><g
             id="g78"><g
               style="opacity:0.19999701"
               id="g76"
               clip-path="url(#clipPath70)"><g
                 id="g74"
                 transform="translate(878.874,163.2773)"><path
                   id="path72"
                   style="fill:#000000;fill-opacity:1;fill-rule:nonzero;stroke:none"
                   d="m 0,0 c 0.133,0.224 0.244,0.453 0.372,0.677 l -28.201,32.847 -0.004,-10e-4 c 0.781,-2.06 1.228,-4.283 1.228,-6.615 0,-3.4 -0.957,-6.566 -2.497,-9.343 -4.592,-8.271 -5.813,-6.612 -6.56,-11.112 -0.171,-1.015 -0.358,-1.816 -0.597,-2.448 0.356,-0.187 0.589,-0.511 0.589,-0.88 V 2.432 c 0,-0.577 -0.563,-1.04 -1.259,-1.04 H -53.7 c -0.343,0 -0.648,0.113 -0.873,0.295 l 1.639,-1.533 c 0.035,0.003 0.06,0.018 0.095,0.018 h 15.05 c 0.627,0 1.128,-0.466 1.128,-1.041 v -0.693 c 0,-0.574 -0.501,-1.042 -1.128,-1.042 h -12.193 l 1.304,-1.217 h 9.749 c 0,-2.027 -3.175,-3.388 -6.05,-3.459 l 17.022,-15.501 c 3.128,1.063 6.158,2.434 9.09,4.122 C -10.896,-14.098 -4.606,-7.879 0,0" /></g></g></g></g><g
           transform="translate(822.373,209.375)"
           id="g80"><path
             id="path82"
             style="fill:#ffffff;fill-opacity:1;fill-rule:nonzero;stroke:none"
             d="m 0,0 c 0.162,-0.28 0.457,-0.436 0.762,-0.436 0.147,0 0.3,0.036 0.437,0.116 0.421,0.244 0.563,0.779 0.323,1.199 L -3.24,9.124 C -3.48,9.544 -4.017,9.683 -4.439,9.445 -4.855,9.204 -5,8.665 -4.76,8.244 Z" /></g><g
           transform="translate(815.8984,201.3823)"
           id="g84"><path
             id="path86"
             style="fill:#ffffff;fill-opacity:1;fill-rule:nonzero;stroke:none"
             d="M 0,0 C 0.244,0.417 0.102,0.956 -0.321,1.197 L -8.564,5.959 C -8.983,6.198 -9.521,6.06 -9.764,5.639 -10.007,5.218 -9.863,4.68 -9.442,4.436 l 8.244,-4.757 c 0.137,-0.082 0.29,-0.118 0.435,-0.118 0.307,0 0.602,0.154 0.763,0.439" /></g><g
           transform="translate(827.7754,159.6729)"
           id="g88"><path
             id="path90"
             style="fill:#ffffff;fill-opacity:1;fill-rule:nonzero;stroke:none"
             d="m 0,0 c 0,-2.111 3.403,-3.518 6.382,-3.518 0.075,0 0.158,0.01 0.237,0.01 2.915,0.073 6.136,1.454 6.136,3.508 H 2.867 Z" /></g><g
           transform="translate(844.5352,209.0522)"
           id="g92"><path
             id="path94"
             style="fill:#ffffff;fill-opacity:1;fill-rule:nonzero;stroke:none"
             d="m 0,0 c 0.144,-0.08 0.29,-0.118 0.441,-0.118 0.302,0 0.598,0.159 0.759,0.441 L 5.962,8.57 C 6.204,8.991 6.06,9.527 5.64,9.771 5.218,10.011 4.683,9.867 4.441,9.447 L -0.317,1.2 C -0.562,0.779 -0.416,0.247 0,0" /></g><g
           transform="translate(834.0518,211.8628)"
           id="g96"><path
             id="path98"
             style="fill:#ffffff;fill-opacity:1;fill-rule:nonzero;stroke:none"
             d="m 0,0 c 0.49,0 0.882,0.395 0.882,0.879 v 9.519 c 0,0.485 -0.392,0.88 -0.882,0.88 -0.481,0 -0.876,-0.395 -0.876,-0.88 V 0.879 C -0.876,0.395 -0.481,0 0,0" /></g><g
           transform="translate(834.0518,209.8169)"
           id="g100"><path
             id="path102"
             style="fill:#ffffff;fill-opacity:1;fill-rule:nonzero;stroke:none"
             d="m 0,0 c -10.478,0 -18.974,-8.494 -18.974,-18.974 0,-3.449 0.971,-6.658 2.533,-9.476 4.659,-8.396 5.889,-6.707 6.65,-11.272 0.177,-1.032 0.364,-1.842 0.606,-2.483 -0.355,-0.19 -0.594,-0.519 -0.594,-0.892 v -0.704 c 0,-0.245 0.119,-0.464 0.287,-0.642 l -0.005,-0.015 0.071,-0.068 c 0.013,-0.01 0.02,-0.02 0.036,-0.03 0.23,-0.185 0.538,-0.3 0.885,-0.3 H 8.508 c 0.705,0 1.276,0.471 1.276,1.055 v 0.704 c 0,0.373 -0.236,0.702 -0.596,0.892 0.242,0.641 0.43,1.454 0.604,2.483 0.758,4.565 1.996,2.882 6.654,11.272 1.561,2.816 2.533,6.027 2.533,9.476 0,2.365 -0.454,4.62 -1.246,6.71 C 15.022,-5.101 8.115,0 0,0" /></g><g
           transform="translate(841.6865,163.7246)"
           id="g104"><path
             id="path106"
             style="fill:#ffffff;fill-opacity:1;fill-rule:nonzero;stroke:none"
             d="m 0,0 h -15.265 c -0.036,0 -0.061,-0.016 -0.096,-0.019 -0.585,-0.045 -1.046,-0.487 -1.046,-1.038 V -1.76 c 0,-0.583 0.509,-1.055 1.142,-1.055 H -12.368 0 c 0.636,0 1.145,0.473 1.145,1.055 v 0.703 C 1.145,-0.473 0.636,0 0,0" /></g><g
           transform="translate(860.7754,207.3413)"
           id="g108"><path
             id="path110"
             style="fill:#ffffff;fill-opacity:1;fill-rule:nonzero;stroke:none"
             d="m 0,0 -8.243,-4.762 c -0.421,-0.241 -0.566,-0.78 -0.321,-1.199 0.159,-0.283 0.46,-0.439 0.757,-0.439 0.154,0 0.304,0.038 0.439,0.115 l 8.249,4.762 C 1.302,-1.279 1.446,-0.741 1.2,-0.32 0.96,0.101 0.424,0.239 0,0" /></g><g
           transform="translate(230.4321,93.877)"
           id="g112"><path
             id="path114"
             style="fill:#808080;fill-opacity:1;fill-rule:nonzero;stroke:none"
             d="M 0,0 V 24.662 H 4.164 V 3.951 H 15.419 V 0 Z" /></g><g
           transform="translate(271.2544,118.5391)"
           id="g116"><path
             id="path118"
             style="fill:#808080;fill-opacity:1;fill-rule:nonzero;stroke:none"
             d="m 0,0 v -3.916 h -13.16 v -6.527 h 11.819 v -3.704 H -13.16 v -6.599 H 0.423 v -3.916 H -17.324 V 0 Z" /></g><g
           transform="translate(294.6821,103.333)"
           id="g120"><path
             id="path122"
             style="fill:#808080;fill-opacity:1;fill-rule:nonzero;stroke:none"
             d="M 0,0 -4.481,10.161 -8.962,0 Z m -10.656,-3.846 -2.47,-5.61 h -4.445 l 10.867,24.662 h 4.445 L 8.609,-9.456 H 4.163 l -2.47,5.61 z" /></g><g
           transform="translate(324.3896,107.0371)"
           id="g124"><path
             id="path126"
             style="fill:#808080;fill-opacity:1;fill-rule:nonzero;stroke:none"
             d="m 0,0 c 0.847,0.729 1.27,1.899 1.27,3.511 0,1.611 -0.436,2.717 -1.305,3.316 -0.871,0.6 -2.423,0.901 -4.658,0.901 h -5.292 v -8.822 h 5.186 c 2.352,0 3.952,0.365 4.799,1.094 m 5.539,3.493 c 0,-4.069 -1.776,-6.633 -5.327,-7.691 L 6.668,-13.16 H 1.376 l -5.893,8.292 h -5.468 v -8.292 h -4.164 v 24.662 h 9.174 c 3.763,0 6.457,-0.635 8.08,-1.904 C 4.728,8.327 5.539,6.292 5.539,3.493" /></g><g
           transform="translate(357.9434,118.5391)"
           id="g128"><path
             id="path130"
             style="fill:#808080;fill-opacity:1;fill-rule:nonzero;stroke:none"
             d="m 0,0 h 4.164 v -24.662 h -4.517 l -13.972,17.994 v -17.994 h -4.163 V 0 h 4.163 L 0,-18.417 Z" /></g><g
           transform="translate(393.3667,100.793)"
           id="g132"><path
             id="path134"
             style="fill:#808080;fill-opacity:1;fill-rule:nonzero;stroke:none"
             d="m 0,0 5.504,17.746 h 3.74 L 14.748,0 l 6.21,17.746 h 4.481 L 16.83,-6.916 H 12.702 L 7.515,9.984 H 7.233 l -5.187,-16.9 h -4.128 l -8.609,24.662 h 4.481 z" /></g><path
           id="path136"
           style="fill:#808080;fill-opacity:1;fill-rule:nonzero;stroke:none"
           d="m 426.179,118.539 h 4.164 V 93.877 h -4.164 z" /><g
           transform="translate(450.0303,114.7295)"
           id="g138"><path
             id="path140"
             style="fill:#808080;fill-opacity:1;fill-rule:nonzero;stroke:none"
             d="M 0,0 V -20.853 H -4.164 V 0 h -7.48 V 3.81 H 7.48 L 7.48,0 Z" /></g><g
           transform="translate(465.5542,93.877)"
           id="g142"><path
             id="path144"
             style="fill:#808080;fill-opacity:1;fill-rule:nonzero;stroke:none"
             d="m 0,0 v 24.662 h 4.164 v -10.69 h 12.243 v 10.69 H 20.57 V 0 H 16.407 V 10.091 H 4.164 V 0 Z" /></g><g
           transform="translate(513.8564,93.877)"
           id="g146"><path
             id="path148"
             style="fill:#808080;fill-opacity:1;fill-rule:nonzero;stroke:none"
             d="M 0,0 H -4.163 V 24.662 H 2.329 L 9.773,9.174 17.218,24.662 h 6.457 V 0 H 19.511 V 19.265 L 10.902,2.152 H 8.574 L 0,19.265 Z" /></g><g
           transform="translate(565.4912,112.7178)"
           id="g150"><path
             id="path152"
             style="fill:#808080;fill-opacity:1;fill-rule:nonzero;stroke:none"
             d="m 0,0 c -1.683,1.74 -3.746,2.611 -6.191,2.611 -2.448,0 -4.511,-0.871 -6.193,-2.611 -1.682,-1.741 -2.522,-3.852 -2.522,-6.333 0,-2.482 0.84,-4.593 2.522,-6.333 1.682,-1.741 3.745,-2.611 6.193,-2.611 2.445,0 4.508,0.87 6.191,2.611 1.682,1.74 2.523,3.851 2.523,6.333 C 2.523,-3.852 1.682,-1.741 0,0 m 3.052,-15.436 c -2.493,-2.434 -5.574,-3.652 -9.243,-3.652 -3.669,0 -6.751,1.218 -9.246,3.652 -2.493,2.434 -3.739,5.468 -3.739,9.103 0,3.634 1.246,6.668 3.739,9.104 2.495,2.433 5.577,3.651 9.246,3.651 3.669,0 6.75,-1.218 9.243,-3.651 2.494,-2.436 3.74,-5.47 3.74,-9.104 0,-3.635 -1.246,-6.669 -3.74,-9.103" /></g><g
           transform="translate(589.7129,114.7295)"
           id="g154"><path
             id="path156"
             style="fill:#808080;fill-opacity:1;fill-rule:nonzero;stroke:none"
             d="M 0,0 V -20.853 H -4.163 V 0 h -7.48 V 3.81 H 7.479 l 0,-3.81 z" /></g><g
           transform="translate(605.2373,93.877)"
           id="g158"><path
             id="path160"
             style="fill:#808080;fill-opacity:1;fill-rule:nonzero;stroke:none"
             d="m 0,0 v 24.662 h 4.163 v -10.69 h 12.243 v 10.69 h 4.163 V 0 H 16.406 V 10.091 H 4.163 L 4.163,0 Z" /></g><g
           transform="translate(653.5039,118.5391)"
           id="g162"><path
             id="path164"
             style="fill:#808080;fill-opacity:1;fill-rule:nonzero;stroke:none"
             d="m 0,0 v -3.916 h -13.16 v -6.527 h 11.819 v -3.704 H -13.16 v -6.599 H 0.424 v -3.916 H -17.323 V 0 Z" /></g><g
           transform="translate(676.9316,107.0371)"
           id="g166"><path
             id="path168"
             style="fill:#808080;fill-opacity:1;fill-rule:nonzero;stroke:none"
             d="m 0,0 c 0.847,0.729 1.271,1.899 1.271,3.511 0,1.611 -0.436,2.717 -1.307,3.316 -0.87,0.6 -2.423,0.901 -4.656,0.901 h -5.293 v -8.822 h 5.187 C -2.446,-1.094 -0.847,-0.729 0,0 M 5.54,3.493 C 5.54,-0.576 3.763,-3.14 0.212,-4.198 L 6.669,-13.16 H 1.376 l -5.892,8.292 h -5.469 v -8.292 h -4.163 v 24.662 h 9.173 c 3.764,0 6.457,-0.635 8.079,-1.904 C 4.728,8.327 5.54,6.292 5.54,3.493" /></g><g
           transform="translate(691.1504,114.5527)"
           id="g170"><path
             id="path172"
             style="fill:#808080;fill-opacity:1;fill-rule:nonzero;stroke:none"
             d="m 0,0 c -0.635,0.376 -0.953,0.936 -0.953,1.676 0,0.741 0.212,1.317 0.635,1.729 0.423,0.411 0.953,0.617 1.589,0.617 0.634,0 1.168,-0.2 1.605,-0.6 0.435,-0.4 0.652,-0.923 0.652,-1.569 0,-0.648 -0.212,-1.277 -0.634,-1.888 L 0.812,-3.034 h -2.153 z" /></g><g
           transform="translate(710.6445,115.2939)"
           id="g174"><path
             id="path176"
             style="fill:#808080;fill-opacity:1;fill-rule:nonzero;stroke:none"
             d="m 0,0 c -1.212,0 -2.206,-0.247 -2.982,-0.741 -0.777,-0.494 -1.164,-1.241 -1.164,-2.24 0,-1 0.387,-1.765 1.164,-2.294 0.776,-0.53 2.428,-1.1 4.958,-1.711 2.528,-0.613 4.433,-1.47 5.714,-2.577 1.283,-1.105 1.923,-2.734 1.923,-4.885 0,-2.153 -0.81,-3.9 -2.433,-5.24 -1.623,-1.341 -3.752,-2.011 -6.387,-2.011 -3.858,0 -7.279,1.329 -10.268,3.986 l 2.612,3.141 c 2.493,-2.164 5.08,-3.246 7.762,-3.246 1.341,0 2.405,0.288 3.193,0.864 0.788,0.576 1.182,1.341 1.182,2.294 0,0.952 -0.37,1.693 -1.111,2.222 -0.742,0.53 -2.017,1.011 -3.828,1.448 -1.812,0.434 -3.189,0.834 -4.128,1.199 -0.941,0.364 -1.776,0.841 -2.506,1.429 -1.459,1.105 -2.187,2.799 -2.187,5.081 0,2.281 0.829,4.04 2.487,5.274 1.658,1.236 3.71,1.853 6.157,1.853 1.575,0 3.141,-0.26 4.693,-0.777 C 6.403,2.552 7.744,1.822 8.873,0.882 L 6.649,-2.259 C 5.92,-1.6 4.933,-1.059 3.687,-0.636 2.438,-0.212 1.21,0 0,0" /></g><g
           transform="translate(753.3887,97.6523)"
           id="g178"><path
             id="path180"
             style="fill:#808080;fill-opacity:1;fill-rule:nonzero;stroke:none"
             d="M 0,0 C 1.434,0 2.669,0.24 3.704,0.724 4.739,1.205 5.82,1.976 6.95,3.034 L 9.632,0.282 c -2.611,-2.893 -5.781,-4.34 -9.51,-4.34 -3.727,0 -6.821,1.2 -9.278,3.599 -2.459,2.399 -3.688,5.434 -3.688,9.104 0,3.668 1.253,6.726 3.759,9.172 2.504,2.447 5.667,3.67 9.489,3.67 3.823,0 7.017,-1.412 9.58,-4.234 L 7.338,14.36 c -1.177,1.129 -2.287,1.916 -3.334,2.364 -1.047,0.447 -2.276,0.671 -3.688,0.671 -2.493,0 -4.586,-0.807 -6.279,-2.417 -1.694,-1.612 -2.541,-3.67 -2.541,-6.175 0,-2.505 0.841,-4.599 2.524,-6.281 C -4.299,0.841 -2.306,0 0,0" /></g><g
           transform="translate(785.7783,103.333)"
           id="g182"><path
             id="path184"
             style="fill:#808080;fill-opacity:1;fill-rule:nonzero;stroke:none"
             d="M 0,0 -4.481,10.161 -8.962,0 Z m -10.656,-3.846 -2.469,-5.61 h -4.446 l 10.868,24.662 h 4.445 L 8.608,-9.456 H 4.163 l -2.47,5.61 z" /></g><g
           transform="translate(815.4863,107.0371)"
           id="g186"><path
             id="path188"
             style="fill:#808080;fill-opacity:1;fill-rule:nonzero;stroke:none"
             d="m 0,0 c 0.847,0.729 1.27,1.899 1.27,3.511 0,1.611 -0.435,2.717 -1.306,3.316 -0.87,0.6 -2.423,0.901 -4.657,0.901 h -5.292 v -8.822 h 5.186 c 2.352,0 3.952,0.365 4.799,1.094 m 5.539,3.493 c 0,-4.069 -1.776,-6.633 -5.327,-7.691 L 6.668,-13.16 H 1.375 l -5.892,8.292 h -5.468 v -8.292 h -4.163 v 24.662 h 9.172 c 3.764,0 6.457,-0.635 8.08,-1.904 C 4.728,8.327 5.539,6.292 5.539,3.493" /></g><g
           transform="translate(847.875,118.5391)"
           id="g190"><path
             id="path192"
             style="fill:#808080;fill-opacity:1;fill-rule:nonzero;stroke:none"
             d="m 0,0 v -3.916 h -13.16 v -6.527 h 11.819 v -3.704 H -13.16 v -6.599 H 0.424 v -3.916 H -17.323 V 0 Z" /></g></g></g></g></svg>